HIERARCHY
ROOT Hips
{
    OFFSET 0.000000 0.000000 0.000000
    CHANNELS 6 Xposition Yposition Zposition Zrotation Xrotation Yrotation
    JOINT Spine
    {
        OFFSET -0.000000 14.517291 0.000000
        CHANNELS 3 Zrotation Xrotation Yrotation
        JOINT Spine1
        {
            OFFSET -0.000000 37.558300 0.000000
            CHANNELS 3 Zrotation Xrotation Yrotation
            JOINT Neck
            {
                OFFSET -0.000000 37.404057 3.400369
                CHANNELS 3 Zrotation Xrotation Yrotation
                JOINT Head
                {
                    OFFSET -0.000000 24.785618 -3.540803
                    CHANNELS 3 Zrotation Xrotation Yrotation
                    End Site
                    {
                        OFFSET -0.000000 35.408028 0.000000
                    }
                }
            }
            JOINT LeftShoulder
            {
                OFFSET 6.992933 33.973492 -0.192664
                CHANNELS 3 Zrotation Xrotation Yrotation
                JOINT LeftArm
                {
                    OFFSET 21.527611 0.000000 0.000000
                    CHANNELS 3 Zrotation Xrotation Yrotation
                    JOINT LeftForeArm
                    {
                        OFFSET 56.353916 0.000000 0.000000
                        CHANNELS 3 Zrotation Xrotation Yrotation
                        JOINT LeftHand
                        {
                            OFFSET 47.774071 0.000000 0.000000
                            CHANNELS 3 Zrotation Xrotation Yrotation
                            End Site
                            {
                                OFFSET 26.556021 0.000000 0.000000
                            }
                        }
                    }
                }
            }
            JOINT RightShoulder
            {
                OFFSET -7.065357 33.973492 -0.192664
                CHANNELS 3 Zrotation Xrotation Yrotation
                JOINT RightArm
                {
                    OFFSET -21.527611 0.000000 0.000000
                    CHANNELS 3 Zrotation Xrotation Yrotation
                    JOINT RightForeArm
                    {
                        OFFSET -56.353916 0.000000 0.000000
                        CHANNELS 3 Zrotation Xrotation Yrotation
                        JOINT RightHand
                        {
                            OFFSET -47.774071 0.000000 0.000000
                            CHANNELS 3 Zrotation Xrotation Yrotation
                            End Site
                            {
                                OFFSET -26.556021 0.000000 0.000000
                            }
                        }
                    }
                }
            }
        }
    }
    JOINT LeftUpLeg
    {
        OFFSET 17.704014 0.000000 0.000000
        CHANNELS 3 Zrotation Xrotation Yrotation
        JOINT LeftLeg
        {
            OFFSET -0.000000 -81.181816 0.000000
            CHANNELS 3 Zrotation Xrotation Yrotation
            JOINT LeftFoot
            {
                OFFSET -0.000000 -62.821102 0.000000
                CHANNELS 3 Zrotation Xrotation Yrotation
                JOINT LeftToeBase
                {
                    OFFSET -0.000000 -11.507608 26.556021
                    CHANNELS 3 Zrotation Xrotation Yrotation
                    End Site
                    {
                        OFFSET -0.000000 0.000000 7.081605
                    }
                }
            }
        }
    }
    JOINT RightUpLeg
    {
        OFFSET -17.704014 0.000000 0.000000
        CHANNELS 3 Zrotation Xrotation Yrotation
        JOINT RightLeg
        {
            OFFSET -0.000000 -81.181816 0.000000
            CHANNELS 3 Zrotation Xrotation Yrotation
            JOINT RightFoot
            {
                OFFSET -0.000000 -62.821102 0.000000
                CHANNELS 3 Zrotation Xrotation Yrotation
                JOINT RightToeBase
                {
                    OFFSET -0.000000 -11.507608 26.556021
                    CHANNELS 3 Zrotation Xrotation Yrotation
                    End Site
                    {
                        OFFSET -0.000000 0.000000 7.081605
                    }
                }
            }
        }
    }
}
MOTION
Frames:    5
Frame Time:    0.008333
30.380600    158.567368    -35.701977    17.087782    4.875786    -65.089867    7.240903    5.191135    4.192285    2.311829    -1.153389    1.522338    20.146872    -7.313161    17.617907    -19.799320    3.825595    11.877498    14.257131    -4.564937    -15.147297    -10.563880    -20.989883    -38.097591    13.868382    -46.393768    -18.047340    -27.166643    -35.790012    -46.392860    -8.689323    1.366314    1.874012    33.865376    7.289613    78.758469    9.515810    -4.432072    104.375275    4.087206    -15.839891    20.266613    21.586563    -31.426510    3.084780    -9.691119    13.888951    -4.918072    -16.357557    3.615165    44.628376    0.000000    0.000000    0.000000    -22.205311    -25.976995    -2.863975    3.148902    24.172848    -0.066650    11.187257    -8.573358    -12.022707    0.000000    0.000000    0.000000    
30.151058    158.556976    -35.621704    16.717833    4.808137    -65.014793    7.239157    5.063082    4.227703    2.225814    -1.197256    1.531625    19.918951    -7.272028    17.531801    -19.468496    3.841331    11.883609    14.166952    -4.474395    -15.179065    -10.641121    -21.025328    -38.286156    13.563303    -46.320816    -18.497595    -27.225639    -35.676575    -46.397179    -8.743431    1.406244    1.827358    33.873539    7.301270    78.806961    9.490384    -4.498288    104.354767    4.051893    -15.873736    20.258682    21.577427    -31.068069    2.943211    -9.595524    14.059890    -5.263034    -16.445313    3.310487    44.677803    0.000000    0.000000    0.000000    -22.078995    -25.479599    -2.849460    3.188288    24.091110    -0.080173    11.164182    -8.629741    -11.904353    0.000000    0.000000    0.000000    
29.866535    158.531860    -35.567146    16.312468    4.724728    -64.941986    7.202540    4.923960    4.247007    2.155152    -1.175911    1.533768    19.791092    -7.356314    17.455078    -19.204235    4.060976    11.882025    14.137426    -4.386307    -15.194032    -10.757163    -21.133009    -38.435104    13.123062    -46.223183    -19.054972    -27.322041    -35.519470    -46.447014    -8.780980    1.412985    1.780302    33.923882    7.302514    78.864372    9.477615    -4.490646    104.334679    4.007673    -15.853628    20.255341    21.602234    -30.647932    2.790910    -9.629395    14.158924    -5.288020    -16.382971    3.127149    44.620335    0.000000    0.000000    0.000000    -21.917419    -24.934761    -2.806791    3.219184    24.022024    -0.068253    11.106298    -8.764292    -11.797005    0.000000    0.000000    0.000000    
29.603159    158.497726    -35.515930    15.951753    4.646078    -64.882988    7.146476    4.734620    4.285846    2.106712    -1.141856    1.541185    19.644039    -7.358727    17.365818    -18.971075    4.167887    11.863072    14.058747    -4.340618    -15.212948    -10.790323    -21.060944    -38.570564    12.855670    -46.137226    -19.477608    -27.384825    -35.372513    -46.528748    -8.881763    1.447958    1.765579    33.971401    7.297162    78.917099    9.441243    -4.564907    104.320145    4.040514    -15.871513    20.229021    21.631678    -30.276281    2.655860    -9.663677    14.275320    -5.344579    -16.333897    2.916991    44.587357    0.000000    0.000000    0.000000    -21.781572    -24.447332    -2.783510    3.245713    23.966221    -0.068744    11.064184    -8.906568    -11.667295    0.000000    0.000000    0.000000    
29.334211    158.458771    -35.468586    15.573573    4.567015    -64.807076    7.092609    4.571670    4.300269    2.046815    -1.130151    1.541348    19.468422    -7.400547    17.258646    -18.646364    4.332510    11.843403    13.992159    -4.297321    -15.227424    -10.774537    -20.898520    -38.666965    12.605870    -46.156025    -19.932520    -27.493702    -35.346153    -46.532158    -8.921866    1.410881    1.736009    33.933121    7.399693    78.955643    9.360193    -4.727542    104.319283    4.069599    -15.921309    20.224850    21.664265    -29.899324    2.477073    -9.709071    14.396194    -5.394005    -16.274996    2.710049    44.560360    0.000000    0.000000    0.000000    -21.640755    -23.938332    -2.751112    3.278484    23.920473    -0.077219    11.015591    -9.069427    -11.539270    0.000000    0.000000    0.000000    
